#!OML:ASF F:\VICON\USERDATA\INSTALL\rory3\rory3.ASF
:FULLY-SPECIFIED
:DEGREES
2322
root 0.878427 16.2711 -15.2264 -385.55 -84.547 386.084
lowerback 13.5292 1.0362 -7.50175
upperback -3.45611 0.185345 1.32736
thorax -11.4974 0.673949 5.67698
lowerneck -11.3065 -6.14552 -4.5684
upperneck 20.8464 -8.93642 4.37913
head 8.7755 -4.25141 1.22135
rclavicle 2.39163e-014 1.59028e-015
rhumerus -21.9126 0.198346 -81.0178
rradius 15.9632
rwrist 43.6902
rhand -12.0399 30.2967
rfingers 7.12502
rthumb 14.0186 0.789434
lclavicle 2.39163e-014 1.59028e-015
lhumerus -28.6132 -30.4027 88.5297
lradius 24.9238
lwrist -16.6027
lhand -12.3541 10.488
lfingers 7.12502
lthumb 13.7157 40.016
rfemur -8.37463 14.7479 15.313
rtibia 29.4693
rfoot -16.6738 -8.33133
rtoes -25.1984
lfemur -13.1615 -9.00136 -18.5271
ltibia 32.198
lfoot -14.7093 3.68646
ltoes -23.3592
2323
root 0.879933 16.2698 -15.2292 -386.088 -84.4784 386.589
lowerback 13.5999 1.04293 -7.61817
upperback -3.45915 0.166311 1.31747
thorax -11.5421 0.674806 5.73795
lowerneck -11.2928 -6.13109 -4.47643
upperneck 20.8513 -8.91992 4.30893
head 8.76591 -4.24409 1.18549
rclavicle 1.52195e-014 -1.07344e-014
rhumerus -21.9623 0.983104 -81.2599
rradius 15.9857
rwrist 42.7138
rhand -12.1312 29.5479
rfingers 7.12502
rthumb 13.9306 0.0345744
lclavicle 1.52195e-014 -1.07344e-014
lhumerus -28.7162 -30.7009 88.6345
lradius 25.0775
lwrist -16.2744
lhand -12.4092 11.1086
lfingers 7.12502
lthumb 13.6626 40.6402
rfemur -8.29744 14.6956 15.2495
rtibia 29.3999
rfoot -16.6131 -8.06998
rtoes -24.2423
lfemur -13.1848 -8.85854 -18.5898
ltibia 32.2686
lfoot -14.7043 3.55797
ltoes -23.979
2324
root 0.876956 16.2711 -15.2232 -385.755 -84.5532 386.14
lowerback 13.6601 1.05607 -7.45707
upperback -3.42479 0.209709 1.31838
thorax -11.5425 0.683025 5.63685
lowerneck -11.2196 -6.15441 -4.42681
upperneck 20.8114 -8.94992 4.25176
head 8.73512 -4.26212 1.15773
rclavicle -1.87603e-015 8.34896e-015
rhumerus -21.9957 1.52685 -81.4093
rradius 16.0313
rwrist 42.1926
rhand -12.3021 29.5642
rfingers 7.12502
rthumb 13.7658 0.0395704
lclavicle -1.87603e-015 8.34896e-015
lhumerus -28.7499 -30.8918 88.7039
lradius 25.131
lwrist -16.0027
lhand -12.3932 11.4039
lfingers 7.12502
lthumb 13.6781 40.9344
rfemur -8.14546 14.6237 15.3073
rtibia 29.3354
rfoot -16.6611 -7.66132
rtoes -22.8171
lfemur -13.0627 -9.00255 -18.5696
ltibia 32.3254
lfoot -14.7827 3.5548
ltoes -23.1501
2325
root 0.876114 16.2733 -15.2163 -385.065 -84.6776 385.415
lowerback 13.6391 1.06975 -7.22105
upperback -3.40152 0.273494 1.31879
thorax -11.5086 0.694451 5.48672
lowerneck -11.2754 -6.20445 -4.55708
upperneck 20.902 -9.02902 4.37687
head 8.79278 -4.29538 1.20797
rclavicle 4.00675e-015 -8.34896e-015
rhumerus -21.9298 1.19857 -81.3336
rradius 15.9627
rwrist 42.5604
rhand -12.2443 29.8837
rfingers 7.12502
rthumb 13.8215 0.362894
lclavicle 4.00675e-015 -8.34896e-015
lhumerus -29.017 -31.9238 89.0854
lradius 25.4141
lwrist -15.0067
lhand -12.4429 11.9615
lfingers 7.12502
lthumb 13.6302 41.4952
rfemur -8.09794 14.5268 15.373
rtibia 29.2484
rfoot -16.5389 -7.5072
rtoes -23.3161
lfemur -13.028 -9.2169 -18.4866
ltibia 32.3785
lfoot -14.8902 3.4667
ltoes -21.064
2326
root 0.876461 16.2752 -15.2167 -385.814 -84.6957 386.211
lowerback 13.6012 1.06804 -7.33704
upperback -3.41599 0.25368 1.32828
thorax -11.502 0.693818 5.5681
lowerneck -11.3428 -6.1958 -4.63449
upperneck 20.9785 -9.00784 4.39089
head 8.8348 -4.28806 1.22453
rclavicle -8.36138e-015 7.15625e-015
rhumerus -21.8184 0.880924 -81.2608
rradius 15.8295
rwrist 42.9527
rhand -12.2878 29.8802
rfingers 7.12502
rthumb 13.7796 0.356526
lclavicle -8.36138e-015 7.15625e-015
lhumerus -29.1252 -32.4569 89.331
lradius 25.4393
lwrist -14.5125
lhand -12.3677 12.338
lfingers 7.12502
lthumb 13.7026 41.8669
rfemur -8.12855 14.565 15.2693
rtibia 29.1493
rfoot -16.5656 -7.42586
rtoes -22.8009
lfemur -13.0863 -9.25843 -18.5172
ltibia 32.4233
lfoot -14.9956 3.19616
ltoes -18.9757
2327
root 0.872405 16.274 -15.2124 -385.452 -84.6804 385.78
lowerback 13.6204 1.05567 -7.28112
upperback -3.39766 0.249772 1.35905
thorax -11.4911 0.688485 5.57131
lowerneck -11.3374 -6.18808 -4.66743
upperneck 21.0035 -8.98961 4.37645
head 8.84231 -4.28357 1.22709
rclavicle -1.85739e-015 2.38542e-015
rhumerus -21.7737 0.689064 -81.133
rradius 15.7688
rwrist 43.1639
rhand -12.0647 29.8645
rfingers 7.12502
rthumb 13.9946 0.355595
lclavicle -1.85739e-015 2.38542e-015
lhumerus -28.3693 -30.7083 88.7225
lradius 24.4911
lwrist -16.3525
lhand -12.2359 11.5686
lfingers 7.12502
lthumb 13.8297 41.0889
rfemur -7.97996 14.5098 15.3184
rtibia 29.0814
rfoot -16.6598 -7.62957
rtoes -23.2627
lfemur -13.0208 -9.35525 -18.5239
ltibia 32.4719
lfoot -15.0332 3.35408
ltoes -19.6066
2328
root 0.870491 16.2727 -15.207 -385.001 -84.6479 385.269
lowerback 13.6467 1.02743 -7.1598
upperback -3.38265 0.231286 1.34947
thorax -11.4841 0.670009 5.49563
lowerneck -11.2676 -6.16186 -4.62004
upperneck 20.964 -8.96554 4.38572
head 8.81282 -4.26988 1.22817
rclavicle 4.57205e-015 -1.07344e-014
rhumerus -21.7512 0.764174 -81.157
rradius 15.7655
rwrist 43.1127
rhand -11.7652 29.9353
rfingers 7.12502
rthumb 14.2832 0.446511
lclavicle 4.57205e-015 -1.07344e-014
lhumerus -27.8467 -29.5132 88.2269
lradius 23.8351
lwrist -17.5397
lhand -12.2183 10.8615
lfingers 7.12502
lthumb 13.8466 40.3806
rfemur -7.90674 14.4656 15.352
rtibia 29.1092
rfoot -16.7909 -7.64931
rtoes -23.2169
lfemur -12.9724 -9.33724 -18.5561
ltibia 32.4752
lfoot -14.9364 3.67835
ltoes -21.8103
2329
root 0.875351 16.2711 -15.2066 -384.372 -84.7275 384.69
lowerback 13.6469 1.03972 -7.10138
upperback -3.40515 0.262315 1.39201
thorax -11.514 0.684459 5.50253
lowerneck -11.2524 -6.15478 -4.5771
upperneck 20.9435 -8.95031 4.33114
head 8.79747 -4.2652 1.20561
rclavicle -2.07668e-014 1.11319e-014
rhumerus -21.8028 2.07601 -81.5412
rradius 15.8984
rwrist 41.3383
rhand -11.488 28.9734
rfingers 7.12502
rthumb 14.5504 -0.496276
lclavicle -2.07668e-014 1.11319e-014
lhumerus -28.0783 -30.402 88.579
lradius 24.1361
lwrist -16.6128
lhand -12.1587 11.3688
lfingers 7.12502
lthumb 13.9041 40.8839
rfemur -8.02709 14.5567 15.422
rtibia 29.1485
rfoot -16.6665 -7.65319
rtoes -23.3157
lfemur -13.0862 -9.11234 -18.4633
ltibia 32.5076
lfoot -14.9036 3.73706
ltoes -23.2556
2330
root 0.884016 16.2706 -15.2113 -385.834 -84.6954 386.249
lowerback 13.6591 1.06265 -7.33203
upperback -3.4397 0.24659 1.36977
thorax -11.5627 0.695359 5.61403
lowerneck -11.2676 -6.1472 -4.48588
upperneck 20.9317 -8.94192 4.27022
head 8.78838 -4.25995 1.17126
rclavicle 1.14115e-014 1.23246e-014
rhumerus -21.7381 2.33867 -81.677
rradius 15.9015
rwrist 41.0074
rhand -11.4298 28.5212
rfingers 7.12502
rthumb 14.6064 -0.944416
lclavicle 1.14115e-014 1.23246e-014
lhumerus -28.1412 -30.9713 88.7446
lradius 24.2145
lwrist -16.0267
lhand -12.1321 11.6713
lfingers 7.12502
lthumb 13.9297 41.1848
rfemur -8.23257 14.5402 15.2353
rtibia 29.2356
rfoot -16.6071 -7.5829
rtoes -23.16
lfemur -13.2347 -8.98898 -18.559
ltibia 32.5351
lfoot -14.918 3.51215
ltoes -22.5227
2331
root 0.891916 16.2707 -15.2136 -386.295 -84.7903 386.76
lowerback 13.7104 1.10532 -7.36917
upperback -3.4695 0.291899 1.3688
thorax -11.6354 0.723408 5.62438
lowerneck -11.2376 -6.14061 -4.44709
upperneck 20.8674 -8.93124 4.25063
head 8.75752 -4.25466 1.16154
rclavicle 4.84538e-015 -1.94809e-014
rhumerus -21.5814 1.28262 -81.266
rradius 15.8317
rwrist 42.8248
rhand -11.3219 29.8903
rfingers 7.12502
rthumb 14.7104 0.432217
lclavicle 4.84538e-015 -1.94809e-014
lhumerus -28.0568 -31.054 88.7368
lradius 24.0794
lwrist -15.9862
lhand -12.1178 11.6877
lfingers 7.12502
lthumb 13.9435 41.2002
rfemur -8.41735 14.6229 15.2042
rtibia 29.3411
rfoot -16.6287 -7.46585
rtoes -22.6883
lfemur -13.3195 -8.85373 -18.5107
ltibia 32.5764
lfoot -14.9301 3.39921
ltoes -21.6067
2332
root 0.898835 16.2702 -15.2057 -386.402 -84.9057 386.932
lowerback 13.7286 1.12317 -7.21756
upperback -3.50869 0.339364 1.35591
thorax -11.695 0.738009 5.51246
lowerneck -11.2514 -6.13035 -4.55572
upperneck 20.9094 -8.91831 4.33677
head 8.78327 -4.24798 1.20833
rclavicle -1.70209e-015 -7.95139e-016
rhumerus -21.3349 -0.882894 -80.4749
rradius 15.4057
rwrist 45.5188
rhand -11.1629 31.6519
rfingers 7.12502
rthumb 14.8635 2.2051
lclavicle -1.70209e-015 -7.95139e-016
lhumerus -28.218 -31.575 88.9338
lradius 24.2579
lwrist -15.4932
lhand -12.1265 11.8924
lfingers 7.12502
lthumb 13.9351 41.4055
rfemur -8.61936 14.5627 15.1491
rtibia 29.427
rfoot -16.5462 -7.434
rtoes -23.6056
lfemur -13.4287 -8.77833 -18.5206
ltibia 32.5944
lfoot -14.8391 3.72295
ltoes -23.1228
